<svg width="326" height="370" viewBox="0 0 326 370" fill="none" xmlns="http://www.w3.org/2000/svg">
<path d="M86.0077 222.594C90.3885 222.594 93.225 227.223 91.2385 231.131L39.6549 332.6C36.5647 338.679 44.5683 344.259 49.1949 339.251L119.78 262.853C123.288 259.057 129.632 261.321 129.947 266.482L135.938 364.484C136.361 371.413 146.332 372.004 147.57 365.174L164.661 270.868C165.529 266.079 171.505 264.364 174.777 267.964L246.523 346.902C251.307 352.166 259.573 345.976 255.879 339.898L204.064 254.65C201.68 250.728 204.511 245.708 209.098 245.724L318.243 246.109C325.028 246.133 326.436 236.531 319.93 234.603L219.759 204.922C214.897 203.482 214.025 196.964 218.338 194.295L323.185 129.4C328.983 125.811 325.037 116.88 318.483 118.757L205.67 151.077C202.024 152.121 198.36 149.482 198.192 145.69L191.979 5.61462C191.672 -1.30817 181.737 -2.08205 180.364 4.70982L154.65 131.847C153.628 136.897 147.067 138.277 144.101 134.066L80.0983 43.1951C76.0401 37.4332 67.1361 42.406 69.9049 48.8879L114.609 153.542C116.725 158.495 111.619 163.448 106.739 161.177L17.1399 119.492C10.7777 116.532 5.52744 125.217 11.1 129.483L75.1815 178.543C78.9436 181.423 77.9224 187.347 73.4135 188.799L4.07643 211.129C-2.29475 213.181 -0.818727 222.594 5.8742 222.594H86.0077Z" fill="#FFB700"/>
</svg>
