<svg width="162" height="108" viewBox="0 0 162 108" fill="none" xmlns="http://www.w3.org/2000/svg">
<path d="M0.548485 39.1853L28.6569 31.6536L31.2451 41.3129L13.7619 45.9975L18.8088 64.8331L32.525 61.1578L35.1132 70.8171L21.397 74.4923L29.291 103.953L18.6658 106.8L0.548485 39.1853ZM67.4866 94.7539C62.2706 96.1515 57.8812 95.7402 54.3185 93.52C50.7558 91.2997 48.2498 87.485 46.8004 82.0758L37.2758 46.5298C35.8265 41.1206 36.0894 36.5639 38.0647 32.8598C40.0399 29.1557 43.6356 26.6048 48.8516 25.2072C54.0676 23.8096 58.4569 24.2209 62.0196 26.4411C65.5823 28.6613 68.0884 32.476 69.5378 37.8852L79.0623 73.4313C80.5117 78.8405 80.2487 83.3971 78.2735 87.1012C76.2982 90.8054 72.7026 93.3562 67.4866 94.7539ZM64.8984 85.0946C68.5689 84.1111 69.8089 81.3977 68.6183 76.9544L58.7314 40.0561C57.5408 35.6128 55.1103 33.8829 51.4398 34.8665C47.7693 35.85 46.5293 38.5634 47.7199 43.0066L57.6067 79.905C58.7973 84.3482 61.2279 86.0781 64.8984 85.0946ZM106.161 84.391C100.945 85.7886 96.556 85.3773 92.9933 83.1571C89.4306 80.9369 86.9245 77.1222 85.4751 71.713L75.9506 36.1669C74.5012 30.7577 74.7642 26.2011 76.7394 22.4969C78.7147 18.7928 82.3104 16.242 87.5264 14.8443C92.7424 13.4467 97.1317 13.858 100.694 16.0782C104.257 18.2985 106.763 22.1132 108.213 27.5223L117.737 63.0684C119.186 68.4776 118.924 73.0343 116.948 76.7384C114.973 80.4425 111.377 82.9934 106.161 84.391ZM103.573 74.7317C107.244 73.7482 108.484 71.0348 107.293 66.5916L97.4062 29.6932C96.2156 25.25 93.7851 23.5201 90.1145 24.5036C86.444 25.4871 85.204 28.2005 86.3946 32.6437L96.2815 69.5421C97.4721 73.9854 99.9026 75.7152 103.573 74.7317ZM111.102 9.56261L127.329 5.21445C132.61 3.79957 136.95 4.1551 140.349 6.28105C143.748 8.40699 146.181 12.2068 147.648 17.6803L156.81 51.8741C158.277 57.3477 158.07 61.8549 156.189 65.3957C154.308 68.9365 150.727 71.4144 145.447 72.8293L129.219 77.1774L111.102 9.56261ZM142.665 63.2218C144.404 62.7559 145.586 61.887 146.211 60.6151C146.901 59.326 146.936 57.5223 146.314 55.2041L136.893 20.0444C136.272 17.7262 135.341 16.1813 134.099 15.4098C132.921 14.621 131.463 14.4596 129.724 14.9255L124.315 16.3749L137.256 64.6711L142.665 63.2218Z" fill="#191720"/>
</svg>
