<svg width="154" height="106" viewBox="0 0 154 106" fill="none" xmlns="http://www.w3.org/2000/svg">
<path d="M0.548485 37.1853L29.5263 29.4207L32.1145 39.0799L13.7619 43.9975L18.55 61.8671L33.1355 57.959L35.7237 67.6182L21.1382 71.5264L26.7028 92.2938L45.0554 87.3762L47.6436 97.0355L18.6658 104.8L0.548485 37.1853ZM43.8491 25.5829L58.2414 21.7265L87.3703 86.3908L76.7451 89.2378L71.2157 76.329L71.2675 76.5222L59.1934 79.7575L60.8074 93.5083L50.9549 96.1482L43.8491 25.5829ZM67.553 67.6824L53.8648 35.5296L53.6716 35.5813L57.9903 70.2447L67.553 67.6824ZM80.8696 26.0161L69.7614 28.9925L67.1732 19.3332L100.015 10.5334L102.603 20.1926L91.4947 23.169L107.024 81.1246L96.3987 83.9716L80.8696 26.0161ZM137.348 74.0346C132.196 75.4149 127.912 75.01 124.496 72.8196C121.062 70.5649 118.611 66.7007 117.145 61.2271L116.109 57.3634L126.155 54.6717L127.397 59.3082C128.571 63.687 130.993 65.3847 134.663 64.4012C136.466 63.9181 137.68 63.0406 138.306 61.7687C138.978 60.4151 138.996 58.5471 138.357 56.1644C137.598 53.3311 136.29 51.0244 134.432 49.2445C132.558 47.4001 129.476 45.4305 125.188 43.3357C119.774 40.6453 115.783 37.9876 113.217 35.3625C110.632 32.673 108.814 29.3642 107.762 25.4361C106.329 20.0913 106.577 15.6077 108.506 11.9852C110.416 8.29837 113.948 5.76475 119.099 4.38438C124.187 3.02127 128.415 3.47571 131.784 5.7477C135.201 7.93804 137.643 11.77 139.109 17.2436L139.86 20.0448L129.814 22.7365L128.883 19.2591C128.261 16.9409 127.362 15.3874 126.184 14.5987C124.99 13.7455 123.523 13.5519 121.784 14.0178C118.242 14.9668 117.05 17.5985 118.206 21.913C118.861 24.36 120.118 26.4735 121.975 28.2534C123.897 30.0161 127.002 31.9448 131.29 34.0397C136.769 36.7128 140.768 39.4027 143.287 42.1095C145.807 44.8162 147.636 48.2946 148.775 52.5447C150.259 58.0827 150.013 62.7037 148.038 66.4078C146.127 70.0947 142.564 72.637 137.348 74.0346Z" fill="#191720"/>
</svg>
