<svg width="359" height="408" viewBox="0 0 359 408" fill="none" xmlns="http://www.w3.org/2000/svg">
<path d="M94.7141 245.455C99.5384 245.455 102.662 250.56 100.474 254.869L43.6692 366.759C40.2662 373.462 49.0799 379.615 54.1748 374.093L131.905 289.849C135.768 285.662 142.754 288.159 143.101 293.851L149.698 401.918C150.165 409.558 161.145 410.21 162.508 402.678L181.329 298.687C182.285 293.406 188.866 291.515 192.47 295.484L271.478 382.53C276.746 388.334 285.849 381.509 281.78 374.806L224.721 280.804C222.095 276.479 225.214 270.943 230.265 270.961L350.458 271.385C357.93 271.411 359.48 260.823 352.315 258.698L242.005 225.968C236.65 224.38 235.691 217.193 240.44 214.249L355.9 142.689C362.285 138.732 357.939 128.884 350.722 130.954L226.49 166.593C222.474 167.745 218.44 164.835 218.255 160.653L211.412 6.19126C211.074 -1.44252 200.134 -2.29588 198.621 5.19353L170.305 145.388C169.18 150.957 161.954 152.479 158.688 147.835L88.2065 47.6313C83.7375 41.2777 73.9322 46.7612 76.9813 53.9089L126.211 169.311C128.541 174.773 122.918 180.234 117.544 177.73L18.875 131.764C11.8688 128.5 6.08709 138.077 12.2237 142.781L82.792 196.88C86.935 200.056 85.8104 206.588 80.845 208.189L4.4892 232.813C-2.52691 235.075 -0.901483 245.455 6.46895 245.455H94.7141Z" fill="#10A554"/>
</svg>
