<svg width="425" height="153" viewBox="0 0 425 153" fill="none" xmlns="http://www.w3.org/2000/svg">
<path d="M130.191 66.1418L146.096 60.7316C151.272 58.9712 155.626 59.0394 159.158 60.9362C162.69 62.833 165.369 66.4638 167.194 71.8286L178.594 105.343C180.419 110.708 180.51 115.219 178.867 118.876C177.223 122.533 173.814 125.242 168.639 127.003L152.734 132.413L130.191 66.1418ZM165.229 117.6C166.933 117.02 168.055 116.075 168.595 114.765C169.199 113.433 169.114 111.631 168.341 109.359L156.619 74.8977C155.846 72.6255 154.814 71.1455 153.524 70.4577C152.297 69.7484 150.831 69.6836 149.127 70.2633L143.826 72.0667L159.927 119.403L165.229 117.6ZM168.652 53.0591L197.054 43.3981L200.274 52.8654L182.286 58.984L188.244 76.4985L202.54 71.6358L205.76 81.1031L191.464 85.9658L198.388 106.32L216.376 100.202L219.596 109.669L191.195 119.33L168.652 53.0591ZM203.045 41.3602L213.459 37.8178L232.781 94.6215L249.917 88.7927L253.137 98.26L225.587 107.631L203.045 41.3602ZM235.589 30.2903L246.003 26.7479L268.545 93.0188L258.131 96.5612L235.589 30.2903ZM251.057 25.0288L261.565 21.4542L285.868 70.5429L286.058 70.4785L275.388 16.7525L284.949 13.4999L297.457 83.1845L283.634 87.8862L251.057 25.0288ZM289.952 11.7984L318.353 2.13739L321.574 11.6047L303.586 17.7233L309.544 35.2378L323.839 30.3751L327.06 39.8423L312.764 44.7051L319.688 65.0597L337.676 58.9411L340.896 68.4083L312.494 78.0694L289.952 11.7984ZM324.344 0.0995097L339.776 -5.14966C345.141 -6.97452 349.483 -7.04329 352.804 -5.35598C356.102 -3.73178 358.632 -0.331953 360.393 4.84349L361.777 8.91442C364.117 15.794 363.327 20.9218 359.405 24.2979L359.469 24.4873C362.252 24.3859 364.545 25.3311 366.349 27.3228C368.216 29.2931 369.815 32.2348 371.147 36.148L375.108 47.7927C375.752 49.6862 376.341 51.211 376.875 52.3673C377.388 53.4604 378.09 54.4892 378.981 55.4535L368.378 59.0603C367.634 58.1161 367.038 57.1922 366.59 56.2884C366.141 55.3846 365.499 53.7019 364.661 51.2404L360.539 39.1223C359.509 36.0928 358.285 34.1502 356.867 33.2945C355.512 32.4174 353.636 32.3867 351.237 33.2025L347.64 34.4262L357.301 62.8281L346.887 66.3705L324.344 0.0995097ZM348.206 23.6708C350.289 22.9623 351.653 21.8999 352.298 20.4834C353.006 19.0455 352.931 17.0642 352.072 14.5396L350.333 9.42728C349.517 7.0289 348.485 5.44352 347.236 4.67113C346.051 3.87726 344.543 3.79163 342.712 4.41423L337.979 6.02441L344.42 24.959L348.206 23.6708ZM383.556 22.4203L358.019 -11.3551L369.096 -15.1229L384.473 6.79272L384.662 6.72831L383.486 -20.0179L393.616 -23.4636L393.97 18.8779L403.567 47.0904L393.153 50.6328L383.556 22.4203Z" fill="#191720"/>
<path d="M7.10193 2.38436L34.6517 -6.98686L37.8721 2.48042L20.7363 8.30925L27.016 26.7704L40.4595 22.1976L43.6798 31.6648L30.2363 36.2377L40.0584 65.1129L29.6444 68.6553L7.10193 2.38436ZM77.5631 53.4117C72.4508 55.1507 68.0439 55.0302 64.3424 53.05C60.6408 51.0699 57.8884 47.429 56.085 42.1273L44.2341 7.28772C42.4307 1.98605 42.3922 -2.57802 44.1186 -6.40449C45.845 -10.231 49.2643 -13.0137 54.3766 -14.7527C59.489 -16.4917 63.8959 -16.3711 67.5974 -14.391C71.2989 -12.4108 74.0514 -8.76992 75.8548 -3.46824L87.7057 31.3713C89.5091 36.673 89.5476 41.2371 87.8212 45.0636C86.0948 48.89 82.6755 51.6727 77.5631 53.4117ZM74.3428 43.9445C77.9404 42.7207 78.9985 39.9314 77.5171 35.5764L65.2154 -0.588565C63.734 -4.94351 61.1946 -6.50912 57.597 -5.28539C53.9994 -4.06166 52.9413 -1.27232 54.4227 3.08263L66.7244 39.2476C68.2058 43.6026 70.7452 45.1682 74.3428 43.9445ZM115.469 40.5178C110.357 42.2568 105.95 42.1362 102.248 40.156C98.5469 38.1759 95.7945 34.535 93.9911 29.2333L82.1402 -5.60625C80.3368 -10.9079 80.2983 -15.472 82.0247 -19.2985C83.751 -23.1249 87.1704 -25.9077 92.2827 -27.6466C97.3951 -29.3856 101.802 -29.2651 105.504 -27.2849C109.205 -25.3048 111.958 -21.6639 113.761 -16.3622L125.612 18.4774C127.415 23.779 127.454 28.3431 125.727 32.1696C124.001 35.9961 120.582 38.7788 115.469 40.5178ZM112.249 31.0505C115.846 29.8268 116.905 27.0374 115.423 22.6825L103.121 -13.4825C101.64 -17.8375 99.1006 -19.4031 95.5031 -18.1794C91.9055 -16.9556 90.8474 -14.1663 92.3288 -9.81134L104.631 26.3537C106.112 30.7086 108.651 32.2742 112.249 31.0505ZM115.458 -34.4735L131.363 -39.8837C136.538 -41.6442 140.892 -41.576 144.425 -39.6791C147.957 -37.7823 150.636 -34.1515 152.46 -28.7867L163.86 4.72747C165.685 10.0923 165.776 14.6033 164.133 18.2606C162.49 21.9179 159.081 24.6268 153.905 26.3872L138 31.7974L115.458 -34.4735ZM150.496 16.9844C152.2 16.4047 153.322 15.4597 153.862 14.1493C154.465 12.8174 154.38 11.0154 153.607 8.74322L141.885 -25.7177C141.113 -27.9898 140.081 -29.4698 138.791 -30.1576C137.564 -30.8669 136.098 -30.9317 134.394 -30.352L129.092 -28.5486L145.194 18.7878L150.496 16.9844Z" fill="#191720"/>
</svg>
